<?xml version="1.0" standalone="no"?>
<!DOCTYPE svg PUBLIC "-//W3C//DTD SVG 20010904//EN"
 "http://www.w3.org/TR/2001/REC-SVG-20010904/DTD/svg10.dtd">
<svg version="1.0" xmlns="http://www.w3.org/2000/svg"
 width="375.000000pt" height="375.000000pt" viewBox="0 0 375.000000 375.000000"
 preserveAspectRatio="xMidYMid meet">
<metadata>
Created by potrace 1.11, written by Peter Selinger 2001-2013
</metadata>
<g transform="translate(0.000000,375.000000) scale(0.100000,-0.100000)"
fill="#000000" stroke="none">
<path d="M0 3485 c0 -122 2 -135 18 -136 9 0 310 -1 667 -2 l650 -2 0 -265 0
-265 -665 0 -665 0 -3 -537 -2 -537 587 0 c324 0 624 0 669 -1 l81 0 0 -665 0
-665 -21 -1 c-25 -1 -943 -1 -1003 0 l-43 1 0 265 0 265 -80 1 c-44 0 -96 1
-115 1 -84 0 -75 48 -75 -402 0 -374 1 -400 18 -400 23 -1 1541 -1 1568 0 l22
0 0 935 c0 704 -3 935 -11 936 -7 0 -308 1 -670 1 l-657 1 2 266 3 266 660 1
c363 1 663 2 667 3 3 0 6 242 6 536 l0 534 -804 0 -804 0 0 -134z"/>
<path d="M1876 3612 c-2 -4 -4 -787 -5 -1740 0 -1335 3 -1732 12 -1732 17 -1
1753 -1 1813 0 l52 0 -1 134 0 133 -736 1 c-405 0 -749 1 -766 2 l-30 1 31 27
c17 15 71 61 120 102 49 41 100 85 114 97 14 12 117 99 230 193 113 94 216
181 230 193 14 12 66 56 115 97 50 41 92 77 95 80 3 3 77 66 165 140 258 216
278 233 320 270 22 19 56 48 76 63 l36 28 0 154 c0 151 0 155 -21 156 -11 0
-372 1 -801 2 l-780 2 -2 250 c0 138 1 257 3 265 3 13 99 15 802 15 l799 0 -1
135 -1 135 -801 0 -801 0 0 266 1 266 801 -1 802 -1 0 137 -1 137 -933 0
c-513 0 -934 -3 -937 -7z m1480 -1875 c4 -4 -90 -85 -391 -336 -49 -42 -92
-78 -95 -81 -3 -3 -45 -39 -95 -80 -49 -41 -92 -77 -95 -80 -3 -3 -45 -39 -95
-80 -49 -41 -96 -80 -103 -87 -7 -7 -34 -29 -60 -50 -26 -21 -49 -40 -52 -43
-3 -3 -45 -39 -95 -80 -49 -41 -97 -83 -106 -92 -9 -10 -19 -18 -21 -18 -3 0
-5 231 -4 513 l1 512 65 5 c79 6 1140 3 1146 -3z"/>
</g>
</svg>
