<?xml version="1.0" standalone="no"?>
<!DOCTYPE svg PUBLIC "-//W3C//DTD SVG 20010904//EN"
 "http://www.w3.org/TR/2001/REC-SVG-20010904/DTD/svg10.dtd">
<svg version="1.0" xmlns="http://www.w3.org/2000/svg"
 width="127.000000pt" height="127.000000pt" viewBox="0 0 127.000000 127.000000"
 preserveAspectRatio="xMidYMid meet">
<metadata>
Created by potrace 1.11, written by Peter Selinger 2001-2013
</metadata>
<g transform="translate(0.000000,127.000000) scale(0.100000,-0.100000)"
fill="#000000" stroke="none">
<path d="M8 1213 c-2 -10 -2 -31 0 -48 l4 -30 222 2 223 2 1 -90 0 -89 -224 0
-224 0 -1 -30 c-1 -39 -1 -272 0 -307 l1 -28 224 2 223 3 1 -225 0 -225 -179
0 -179 0 0 90 0 90 -45 0 c-33 0 -45 -4 -46 -15 -1 -19 -1 -197 0 -232 l1 -28
270 3 270 3 0 314 0 315 -225 0 -225 0 0 89 0 89 203 0 c111 0 212 1 225 1 22
1 22 1 22 181 l0 180 -269 0 c-249 0 -270 -1 -273 -17z"/>
<path d="M639 1213 c-1 -21 -1 -1123 0 -1140 1 -10 71 -13 316 -13 l315 0 0
45 0 45 -257 0 c-245 0 -256 1 -237 18 20 18 135 116 169 144 22 18 143 120
221 185 111 93 104 84 104 141 l0 52 -270 0 -270 0 0 90 0 90 270 0 270 0 0
45 0 45 -270 0 -270 0 0 90 0 90 270 0 270 0 0 45 0 45 -315 0 c-293 0 -315
-1 -316 -17z m490 -621 c0 -4 -52 -50 -115 -102 -64 -52 -123 -102 -132 -110
-80 -70 -141 -120 -146 -120 -3 0 -6 76 -6 170 l0 169 200 0 c110 -1 200 -4
199 -7z"/>
</g>
</svg>
